# xmcd CD database file
#
# Track frame offsets:
#	150
#	25343
#	43846
#	69035
#	100422
#
# Disc length: 1678 seconds
#
# Revision: 0
# Processed by: cddbd v1.5.1PL2 Copyright (c) Steve Scherf et al.
# Submitted via: CDex 1.51
#
DISCID=3a068c05
DTITLE=PopKorn - sea of clouds
DYEAR=2001
DGENRE=Game
TTITLE0=Sinon - 虹 -over the rainbow-
TTITLE1=Sinon - 夏影 -Swing Session Style-
TTITLE2=YAN Bal - 月童 -Moonchild's Drift Mix-
TTITLE3=YAN Bal - 双星 -The 7th Night of the 7th Moon Mix-
TTITLE4=Sinon - 序曲「青空の歌」
EXTD=YEAR: 2001
EXTT0=
EXTT1=
EXTT2=
EXTT3=
EXTT4=
PLAYORDER=
